<mxfile host="app.diagrams.net" modified="2022-12-21T01:06:50.436Z" agent="5.0 (Windows NT 10.0; Win64; x64) AppleWebKit/537.36 (KHTML, like Gecko) Chrome/108.0.0.0 Safari/537.36" etag="DtrSgKdBNsL8QGF5n71J" version="20.7.4" type="github">
  <diagram id="C5RBs43oDa-KdzZeNtuy" name="Page-1">
    <mxGraphModel dx="989" dy="527" grid="1" gridSize="10" guides="1" tooltips="1" connect="1" arrows="1" fold="1" page="1" pageScale="1" pageWidth="827" pageHeight="1169" math="0" shadow="0">
      <root>
        <mxCell id="WIyWlLk6GJQsqaUBKTNV-0" />
        <mxCell id="WIyWlLk6GJQsqaUBKTNV-1" parent="WIyWlLk6GJQsqaUBKTNV-0" />
        <mxCell id="VwgFeJyAuyQEly3SJzgB-28" style="edgeStyle=none;rounded=0;orthogonalLoop=1;jettySize=auto;html=1;exitX=0;exitY=1;exitDx=0;exitDy=0;entryX=1;entryY=0;entryDx=0;entryDy=0;dashed=1;fontSize=10;endArrow=none;endFill=0;opacity=50;fillColor=#bac8d3;strokeColor=#23445d;" edge="1" parent="WIyWlLk6GJQsqaUBKTNV-1" source="VwgFeJyAuyQEly3SJzgB-0" target="VwgFeJyAuyQEly3SJzgB-27">
          <mxGeometry relative="1" as="geometry" />
        </mxCell>
        <mxCell id="VwgFeJyAuyQEly3SJzgB-34" style="edgeStyle=none;rounded=0;orthogonalLoop=1;jettySize=auto;html=1;exitX=1;exitY=1;exitDx=0;exitDy=0;entryX=1;entryY=0.25;entryDx=0;entryDy=0;dashed=1;fontSize=7;endArrow=none;endFill=0;opacity=50;fillColor=#bac8d3;strokeColor=#23445d;" edge="1" parent="WIyWlLk6GJQsqaUBKTNV-1" source="VwgFeJyAuyQEly3SJzgB-0" target="VwgFeJyAuyQEly3SJzgB-29">
          <mxGeometry relative="1" as="geometry" />
        </mxCell>
        <mxCell id="VwgFeJyAuyQEly3SJzgB-0" value="I" style="rounded=0;whiteSpace=wrap;html=1;fillColor=#1ba1e2;strokeColor=none;fontColor=#ffffff;fontSize=10;" vertex="1" parent="WIyWlLk6GJQsqaUBKTNV-1">
          <mxGeometry x="160" y="140" width="80" height="20" as="geometry" />
        </mxCell>
        <mxCell id="VwgFeJyAuyQEly3SJzgB-32" style="edgeStyle=none;rounded=0;orthogonalLoop=1;jettySize=auto;html=1;exitX=0;exitY=1;exitDx=0;exitDy=0;entryX=0;entryY=0;entryDx=0;entryDy=0;dashed=1;fontSize=7;endArrow=none;endFill=0;opacity=50;fillColor=#bac8d3;strokeColor=#23445d;" edge="1" parent="WIyWlLk6GJQsqaUBKTNV-1" source="VwgFeJyAuyQEly3SJzgB-1" target="VwgFeJyAuyQEly3SJzgB-31">
          <mxGeometry relative="1" as="geometry" />
        </mxCell>
        <mxCell id="VwgFeJyAuyQEly3SJzgB-1" value="I" style="rounded=0;whiteSpace=wrap;html=1;fillColor=#1ba1e2;strokeColor=none;fontColor=#ffffff;fontSize=10;" vertex="1" parent="WIyWlLk6GJQsqaUBKTNV-1">
          <mxGeometry x="40" y="140" width="40" height="20" as="geometry" />
        </mxCell>
        <mxCell id="VwgFeJyAuyQEly3SJzgB-40" style="edgeStyle=none;rounded=0;orthogonalLoop=1;jettySize=auto;html=1;exitX=1;exitY=1;exitDx=0;exitDy=0;entryX=1;entryY=0.5;entryDx=0;entryDy=0;dashed=1;fontSize=7;endArrow=none;endFill=0;opacity=50;" edge="1" parent="WIyWlLk6GJQsqaUBKTNV-1" source="VwgFeJyAuyQEly3SJzgB-2" target="VwgFeJyAuyQEly3SJzgB-37">
          <mxGeometry relative="1" as="geometry" />
        </mxCell>
        <mxCell id="VwgFeJyAuyQEly3SJzgB-2" value="I" style="rounded=0;whiteSpace=wrap;html=1;fillColor=#1ba1e2;strokeColor=none;fontColor=#ffffff;fontSize=10;" vertex="1" parent="WIyWlLk6GJQsqaUBKTNV-1">
          <mxGeometry x="280" y="140" width="80" height="20" as="geometry" />
        </mxCell>
        <mxCell id="VwgFeJyAuyQEly3SJzgB-49" style="edgeStyle=none;rounded=0;orthogonalLoop=1;jettySize=auto;html=1;exitX=1;exitY=1;exitDx=0;exitDy=0;entryX=0;entryY=0;entryDx=0;entryDy=0;dashed=1;fontSize=7;endArrow=none;endFill=0;opacity=50;fillColor=#bac8d3;strokeColor=#23445d;" edge="1" parent="WIyWlLk6GJQsqaUBKTNV-1" source="VwgFeJyAuyQEly3SJzgB-3">
          <mxGeometry relative="1" as="geometry">
            <mxPoint x="479.9999999999998" y="209.9999999999999" as="targetPoint" />
          </mxGeometry>
        </mxCell>
        <mxCell id="VwgFeJyAuyQEly3SJzgB-3" value="I" style="rounded=0;whiteSpace=wrap;html=1;fillColor=#1ba1e2;strokeColor=none;fontColor=#ffffff;fontSize=10;" vertex="1" parent="WIyWlLk6GJQsqaUBKTNV-1">
          <mxGeometry x="420" y="140" width="40" height="20" as="geometry" />
        </mxCell>
        <mxCell id="VwgFeJyAuyQEly3SJzgB-53" style="edgeStyle=none;rounded=0;orthogonalLoop=1;jettySize=auto;html=1;exitX=1;exitY=1;exitDx=0;exitDy=0;entryX=1;entryY=0;entryDx=0;entryDy=0;dashed=1;fontSize=7;endArrow=none;endFill=0;opacity=50;fillColor=#bac8d3;strokeColor=#23445d;" edge="1" parent="WIyWlLk6GJQsqaUBKTNV-1" source="VwgFeJyAuyQEly3SJzgB-4" target="VwgFeJyAuyQEly3SJzgB-46">
          <mxGeometry relative="1" as="geometry" />
        </mxCell>
        <mxCell id="VwgFeJyAuyQEly3SJzgB-4" value="I" style="rounded=0;whiteSpace=wrap;html=1;fillColor=#1ba1e2;strokeColor=none;fontColor=#ffffff;fontSize=10;" vertex="1" parent="WIyWlLk6GJQsqaUBKTNV-1">
          <mxGeometry x="520" y="140" width="80" height="20" as="geometry" />
        </mxCell>
        <mxCell id="VwgFeJyAuyQEly3SJzgB-59" style="edgeStyle=none;rounded=0;orthogonalLoop=1;jettySize=auto;html=1;exitX=1;exitY=1;exitDx=0;exitDy=0;entryX=0;entryY=0;entryDx=0;entryDy=0;dashed=1;fontSize=7;endArrow=none;endFill=0;opacity=50;fillColor=#bac8d3;strokeColor=#23445d;" edge="1" parent="WIyWlLk6GJQsqaUBKTNV-1" source="VwgFeJyAuyQEly3SJzgB-5" target="VwgFeJyAuyQEly3SJzgB-56">
          <mxGeometry relative="1" as="geometry" />
        </mxCell>
        <mxCell id="VwgFeJyAuyQEly3SJzgB-5" value="I" style="rounded=0;whiteSpace=wrap;html=1;fillColor=#1ba1e2;strokeColor=none;fontColor=#ffffff;fontSize=10;" vertex="1" parent="WIyWlLk6GJQsqaUBKTNV-1">
          <mxGeometry x="640" y="140" width="80" height="20" as="geometry" />
        </mxCell>
        <mxCell id="VwgFeJyAuyQEly3SJzgB-25" style="rounded=0;orthogonalLoop=1;jettySize=auto;html=1;exitX=1;exitY=1;exitDx=0;exitDy=0;entryX=1;entryY=0;entryDx=0;entryDy=0;fontSize=10;opacity=50;endArrow=none;endFill=0;fillColor=#bac8d3;strokeColor=#23445d;dashed=1;" edge="1" parent="WIyWlLk6GJQsqaUBKTNV-1" source="VwgFeJyAuyQEly3SJzgB-6" target="VwgFeJyAuyQEly3SJzgB-20">
          <mxGeometry relative="1" as="geometry" />
        </mxCell>
        <mxCell id="VwgFeJyAuyQEly3SJzgB-26" style="edgeStyle=none;rounded=0;orthogonalLoop=1;jettySize=auto;html=1;exitX=0;exitY=1;exitDx=0;exitDy=0;entryX=0;entryY=0;entryDx=0;entryDy=0;fontSize=10;endArrow=none;endFill=0;opacity=50;fillColor=#bac8d3;strokeColor=#23445d;dashed=1;" edge="1" parent="WIyWlLk6GJQsqaUBKTNV-1" source="VwgFeJyAuyQEly3SJzgB-6" target="VwgFeJyAuyQEly3SJzgB-20">
          <mxGeometry relative="1" as="geometry" />
        </mxCell>
        <mxCell id="VwgFeJyAuyQEly3SJzgB-6" value="E" style="rounded=0;whiteSpace=wrap;html=1;fillColor=#e51400;strokeColor=none;fontColor=#ffffff;fontSize=10;" vertex="1" parent="WIyWlLk6GJQsqaUBKTNV-1">
          <mxGeometry x="120" y="140" width="20" height="20" as="geometry" />
        </mxCell>
        <mxCell id="VwgFeJyAuyQEly3SJzgB-7" value="E" style="rounded=0;whiteSpace=wrap;html=1;fillColor=#e51400;strokeColor=none;fontColor=#ffffff;fontSize=10;" vertex="1" parent="WIyWlLk6GJQsqaUBKTNV-1">
          <mxGeometry x="240" y="140" width="20" height="20" as="geometry" />
        </mxCell>
        <mxCell id="VwgFeJyAuyQEly3SJzgB-47" style="edgeStyle=none;rounded=0;orthogonalLoop=1;jettySize=auto;html=1;exitX=1;exitY=1;exitDx=0;exitDy=0;entryX=1;entryY=0;entryDx=0;entryDy=0;dashed=1;fontSize=7;endArrow=none;endFill=0;opacity=50;fillColor=#bac8d3;strokeColor=#23445d;" edge="1" parent="WIyWlLk6GJQsqaUBKTNV-1" source="VwgFeJyAuyQEly3SJzgB-8" target="VwgFeJyAuyQEly3SJzgB-41">
          <mxGeometry relative="1" as="geometry" />
        </mxCell>
        <mxCell id="VwgFeJyAuyQEly3SJzgB-8" value="E" style="rounded=0;whiteSpace=wrap;html=1;fillColor=#e51400;strokeColor=none;fontColor=#ffffff;fontSize=10;" vertex="1" parent="WIyWlLk6GJQsqaUBKTNV-1">
          <mxGeometry x="360" y="140" width="30" height="20" as="geometry" />
        </mxCell>
        <mxCell id="VwgFeJyAuyQEly3SJzgB-51" style="edgeStyle=none;rounded=0;orthogonalLoop=1;jettySize=auto;html=1;exitX=1;exitY=1;exitDx=0;exitDy=0;dashed=1;fontSize=7;endArrow=none;endFill=0;opacity=50;entryX=1;entryY=0;entryDx=0;entryDy=0;fillColor=#bac8d3;strokeColor=#23445d;" edge="1" parent="WIyWlLk6GJQsqaUBKTNV-1" source="VwgFeJyAuyQEly3SJzgB-9" target="VwgFeJyAuyQEly3SJzgB-52">
          <mxGeometry relative="1" as="geometry">
            <mxPoint x="549.9999999999998" y="199.9999999999999" as="targetPoint" />
          </mxGeometry>
        </mxCell>
        <mxCell id="VwgFeJyAuyQEly3SJzgB-9" value="E" style="rounded=0;whiteSpace=wrap;html=1;fillColor=#e51400;strokeColor=none;fontColor=#ffffff;fontSize=10;" vertex="1" parent="WIyWlLk6GJQsqaUBKTNV-1">
          <mxGeometry x="480" y="140" width="40" height="20" as="geometry" />
        </mxCell>
        <mxCell id="VwgFeJyAuyQEly3SJzgB-58" style="edgeStyle=none;rounded=0;orthogonalLoop=1;jettySize=auto;html=1;exitX=1;exitY=1;exitDx=0;exitDy=0;entryX=1;entryY=0;entryDx=0;entryDy=0;dashed=1;fontSize=7;endArrow=none;endFill=0;opacity=50;fillColor=#bac8d3;strokeColor=#23445d;" edge="1" parent="WIyWlLk6GJQsqaUBKTNV-1" source="VwgFeJyAuyQEly3SJzgB-10" target="VwgFeJyAuyQEly3SJzgB-54">
          <mxGeometry relative="1" as="geometry" />
        </mxCell>
        <mxCell id="VwgFeJyAuyQEly3SJzgB-10" value="E" style="rounded=0;whiteSpace=wrap;html=1;fillColor=#e51400;strokeColor=none;fontColor=#ffffff;fontSize=10;" vertex="1" parent="WIyWlLk6GJQsqaUBKTNV-1">
          <mxGeometry x="600" y="140" width="40" height="20" as="geometry" />
        </mxCell>
        <mxCell id="VwgFeJyAuyQEly3SJzgB-33" style="edgeStyle=none;rounded=0;orthogonalLoop=1;jettySize=auto;html=1;exitX=0;exitY=1;exitDx=0;exitDy=0;entryX=1;entryY=0.25;entryDx=0;entryDy=0;dashed=1;fontSize=7;endArrow=none;endFill=0;opacity=50;fillColor=#bac8d3;strokeColor=#23445d;" edge="1" parent="WIyWlLk6GJQsqaUBKTNV-1" source="VwgFeJyAuyQEly3SJzgB-12" target="VwgFeJyAuyQEly3SJzgB-31">
          <mxGeometry relative="1" as="geometry" />
        </mxCell>
        <mxCell id="VwgFeJyAuyQEly3SJzgB-12" value="W" style="rounded=0;whiteSpace=wrap;html=1;fillColor=#f0a30a;strokeColor=none;fontColor=#000000;fontSize=10;" vertex="1" parent="WIyWlLk6GJQsqaUBKTNV-1">
          <mxGeometry x="80" y="140" width="40" height="20" as="geometry" />
        </mxCell>
        <mxCell id="VwgFeJyAuyQEly3SJzgB-13" value="W" style="rounded=0;whiteSpace=wrap;html=1;fillColor=#f0a30a;strokeColor=none;fontColor=#000000;fontSize=10;" vertex="1" parent="WIyWlLk6GJQsqaUBKTNV-1">
          <mxGeometry x="140" y="140" width="20" height="20" as="geometry" />
        </mxCell>
        <mxCell id="VwgFeJyAuyQEly3SJzgB-38" style="edgeStyle=none;rounded=0;orthogonalLoop=1;jettySize=auto;html=1;exitX=0;exitY=1;exitDx=0;exitDy=0;entryX=0;entryY=0;entryDx=0;entryDy=0;dashed=1;fontSize=7;endArrow=none;endFill=0;opacity=50;fillColor=#bac8d3;strokeColor=#23445d;" edge="1" parent="WIyWlLk6GJQsqaUBKTNV-1" source="VwgFeJyAuyQEly3SJzgB-14" target="VwgFeJyAuyQEly3SJzgB-36">
          <mxGeometry relative="1" as="geometry" />
        </mxCell>
        <mxCell id="VwgFeJyAuyQEly3SJzgB-39" style="edgeStyle=none;rounded=0;orthogonalLoop=1;jettySize=auto;html=1;exitX=1;exitY=1;exitDx=0;exitDy=0;entryX=1;entryY=0;entryDx=0;entryDy=0;dashed=1;fontSize=7;endArrow=none;endFill=0;opacity=50;fillColor=#bac8d3;strokeColor=#23445d;" edge="1" parent="WIyWlLk6GJQsqaUBKTNV-1" source="VwgFeJyAuyQEly3SJzgB-14" target="VwgFeJyAuyQEly3SJzgB-36">
          <mxGeometry relative="1" as="geometry" />
        </mxCell>
        <mxCell id="VwgFeJyAuyQEly3SJzgB-14" value="W" style="rounded=0;whiteSpace=wrap;html=1;fillColor=#f0a30a;strokeColor=none;fontColor=#000000;fontSize=10;" vertex="1" parent="WIyWlLk6GJQsqaUBKTNV-1">
          <mxGeometry x="260" y="140" width="20" height="20" as="geometry" />
        </mxCell>
        <mxCell id="VwgFeJyAuyQEly3SJzgB-48" style="edgeStyle=none;rounded=0;orthogonalLoop=1;jettySize=auto;html=1;exitX=1;exitY=1;exitDx=0;exitDy=0;entryX=1;entryY=0;entryDx=0;entryDy=0;dashed=1;fontSize=7;endArrow=none;endFill=0;opacity=50;fillColor=#bac8d3;strokeColor=#23445d;" edge="1" parent="WIyWlLk6GJQsqaUBKTNV-1" source="VwgFeJyAuyQEly3SJzgB-15" target="VwgFeJyAuyQEly3SJzgB-42">
          <mxGeometry relative="1" as="geometry" />
        </mxCell>
        <mxCell id="VwgFeJyAuyQEly3SJzgB-15" value="W" style="rounded=0;whiteSpace=wrap;html=1;fillColor=#f0a30a;strokeColor=none;fontColor=#000000;fontSize=10;" vertex="1" parent="WIyWlLk6GJQsqaUBKTNV-1">
          <mxGeometry x="390" y="140" width="30" height="20" as="geometry" />
        </mxCell>
        <mxCell id="VwgFeJyAuyQEly3SJzgB-50" style="edgeStyle=none;rounded=0;orthogonalLoop=1;jettySize=auto;html=1;exitX=1;exitY=1;exitDx=0;exitDy=0;entryX=1;entryY=0;entryDx=0;entryDy=0;dashed=1;fontSize=7;endArrow=none;endFill=0;opacity=50;fillColor=#bac8d3;strokeColor=#23445d;" edge="1" parent="WIyWlLk6GJQsqaUBKTNV-1" source="VwgFeJyAuyQEly3SJzgB-16" target="VwgFeJyAuyQEly3SJzgB-45">
          <mxGeometry relative="1" as="geometry" />
        </mxCell>
        <mxCell id="VwgFeJyAuyQEly3SJzgB-16" value="W" style="rounded=0;whiteSpace=wrap;html=1;fillColor=#f0a30a;strokeColor=none;fontColor=#000000;fontSize=10;" vertex="1" parent="WIyWlLk6GJQsqaUBKTNV-1">
          <mxGeometry x="460" y="140" width="20" height="20" as="geometry" />
        </mxCell>
        <mxCell id="VwgFeJyAuyQEly3SJzgB-60" style="edgeStyle=none;rounded=0;orthogonalLoop=1;jettySize=auto;html=1;exitX=1;exitY=1;exitDx=0;exitDy=0;entryX=1;entryY=0;entryDx=0;entryDy=0;dashed=1;fontSize=7;endArrow=none;endFill=0;opacity=50;fillColor=#bac8d3;strokeColor=#23445d;" edge="1" parent="WIyWlLk6GJQsqaUBKTNV-1" source="VwgFeJyAuyQEly3SJzgB-18" target="VwgFeJyAuyQEly3SJzgB-56">
          <mxGeometry relative="1" as="geometry" />
        </mxCell>
        <mxCell id="VwgFeJyAuyQEly3SJzgB-18" value="W" style="rounded=0;whiteSpace=wrap;html=1;fillColor=#f0a30a;strokeColor=none;fontColor=#000000;fontSize=10;" vertex="1" parent="WIyWlLk6GJQsqaUBKTNV-1">
          <mxGeometry x="720" y="140" width="40" height="20" as="geometry" />
        </mxCell>
        <mxCell id="VwgFeJyAuyQEly3SJzgB-61" style="edgeStyle=none;rounded=0;orthogonalLoop=1;jettySize=auto;html=1;exitX=1;exitY=1;exitDx=0;exitDy=0;entryX=1;entryY=0;entryDx=0;entryDy=0;dashed=1;fontSize=7;endArrow=none;endFill=0;opacity=50;fillColor=#bac8d3;strokeColor=#23445d;" edge="1" parent="WIyWlLk6GJQsqaUBKTNV-1" source="VwgFeJyAuyQEly3SJzgB-19" target="VwgFeJyAuyQEly3SJzgB-57">
          <mxGeometry relative="1" as="geometry" />
        </mxCell>
        <mxCell id="VwgFeJyAuyQEly3SJzgB-19" value="E" style="rounded=0;whiteSpace=wrap;html=1;fillColor=#e51400;strokeColor=none;fontColor=#ffffff;fontSize=10;" vertex="1" parent="WIyWlLk6GJQsqaUBKTNV-1">
          <mxGeometry x="760" y="140" width="40" height="20" as="geometry" />
        </mxCell>
        <mxCell id="VwgFeJyAuyQEly3SJzgB-20" value="E: 201,50" style="rounded=0;whiteSpace=wrap;html=1;fontSize=6;fillColor=#e51400;fontColor=#ffffff;strokeColor=none;container=0;" vertex="1" parent="WIyWlLk6GJQsqaUBKTNV-1">
          <mxGeometry x="120" y="200" width="40" height="20" as="geometry" />
        </mxCell>
        <mxCell id="VwgFeJyAuyQEly3SJzgB-21" value="200,50" style="rounded=0;whiteSpace=wrap;html=1;fontSize=10;fillColor=#e51400;fontColor=#ffffff;strokeColor=none;container=0;" vertex="1" parent="WIyWlLk6GJQsqaUBKTNV-1">
          <mxGeometry x="510" y="350" width="40" height="20" as="geometry" />
        </mxCell>
        <mxCell id="VwgFeJyAuyQEly3SJzgB-27" value="W: 251,50" style="rounded=0;whiteSpace=wrap;html=1;fontSize=6;fillColor=#f0a30a;fontColor=#000000;strokeColor=none;container=0;" vertex="1" parent="WIyWlLk6GJQsqaUBKTNV-1">
          <mxGeometry x="160" y="200" width="40" height="20" as="geometry" />
        </mxCell>
        <mxCell id="VwgFeJyAuyQEly3SJzgB-29" value="I: 301,200" style="rounded=0;whiteSpace=wrap;html=1;fontSize=6;fillColor=#1ba1e2;fontColor=#ffffff;strokeColor=none;container=0;" vertex="1" parent="WIyWlLk6GJQsqaUBKTNV-1">
          <mxGeometry x="200" y="200" width="40" height="20" as="geometry" />
        </mxCell>
        <mxCell id="VwgFeJyAuyQEly3SJzgB-30" value="W: 101,100" style="rounded=0;whiteSpace=wrap;html=1;fontSize=6;fillColor=#f0a30a;fontColor=#000000;strokeColor=none;container=0;" vertex="1" parent="WIyWlLk6GJQsqaUBKTNV-1">
          <mxGeometry x="80" y="200" width="40" height="20" as="geometry" />
        </mxCell>
        <mxCell id="VwgFeJyAuyQEly3SJzgB-31" value="I: 1,100" style="rounded=0;whiteSpace=wrap;html=1;fontSize=6;fillColor=#1ba1e2;fontColor=#ffffff;strokeColor=none;container=0;" vertex="1" parent="WIyWlLk6GJQsqaUBKTNV-1">
          <mxGeometry x="40" y="200" width="40" height="20" as="geometry" />
        </mxCell>
        <mxCell id="VwgFeJyAuyQEly3SJzgB-35" value="E: 501,50" style="rounded=0;whiteSpace=wrap;html=1;fontSize=6;fillColor=#e51400;fontColor=#ffffff;strokeColor=none;container=0;" vertex="1" parent="WIyWlLk6GJQsqaUBKTNV-1">
          <mxGeometry x="240" y="200" width="40" height="20" as="geometry" />
        </mxCell>
        <mxCell id="VwgFeJyAuyQEly3SJzgB-36" value="W: 551,50" style="rounded=0;whiteSpace=wrap;html=1;fontSize=6;fillColor=#f0a30a;fontColor=#000000;strokeColor=none;container=0;" vertex="1" parent="WIyWlLk6GJQsqaUBKTNV-1">
          <mxGeometry x="280" y="200" width="40" height="20" as="geometry" />
        </mxCell>
        <mxCell id="VwgFeJyAuyQEly3SJzgB-37" value="I: 601,200" style="rounded=0;whiteSpace=wrap;html=1;fontSize=6;fillColor=#1ba1e2;fontColor=#ffffff;strokeColor=none;container=0;" vertex="1" parent="WIyWlLk6GJQsqaUBKTNV-1">
          <mxGeometry x="320" y="200" width="40" height="20" as="geometry" />
        </mxCell>
        <mxCell id="VwgFeJyAuyQEly3SJzgB-41" value="E: 801,75" style="rounded=0;whiteSpace=wrap;html=1;fontSize=6;fillColor=#e51400;fontColor=#ffffff;strokeColor=none;container=0;" vertex="1" parent="WIyWlLk6GJQsqaUBKTNV-1">
          <mxGeometry x="360" y="200" width="40" height="20" as="geometry" />
        </mxCell>
        <mxCell id="VwgFeJyAuyQEly3SJzgB-42" value="W: 876,75" style="rounded=0;whiteSpace=wrap;html=1;fontSize=6;fillColor=#f0a30a;fontColor=#000000;strokeColor=none;container=0;" vertex="1" parent="WIyWlLk6GJQsqaUBKTNV-1">
          <mxGeometry x="400" y="200" width="40" height="20" as="geometry" />
        </mxCell>
        <mxCell id="VwgFeJyAuyQEly3SJzgB-43" value="I: 951,100" style="rounded=0;whiteSpace=wrap;html=1;fontSize=6;fillColor=#1ba1e2;fontColor=#ffffff;strokeColor=none;container=0;" vertex="1" parent="WIyWlLk6GJQsqaUBKTNV-1">
          <mxGeometry x="440" y="200" width="40" height="20" as="geometry" />
        </mxCell>
        <mxCell id="VwgFeJyAuyQEly3SJzgB-45" value="W: 1051,50" style="rounded=0;whiteSpace=wrap;html=1;fontSize=6;fillColor=#f0a30a;fontColor=#000000;strokeColor=none;container=0;" vertex="1" parent="WIyWlLk6GJQsqaUBKTNV-1">
          <mxGeometry x="480" y="200" width="40" height="20" as="geometry" />
        </mxCell>
        <mxCell id="VwgFeJyAuyQEly3SJzgB-46" value="I: 1201,200" style="rounded=0;whiteSpace=wrap;html=1;fontSize=6;fillColor=#1ba1e2;fontColor=#ffffff;strokeColor=none;container=0;" vertex="1" parent="WIyWlLk6GJQsqaUBKTNV-1">
          <mxGeometry x="560" y="200" width="40" height="20" as="geometry" />
        </mxCell>
        <mxCell id="VwgFeJyAuyQEly3SJzgB-52" value="E: 1051,100" style="rounded=0;whiteSpace=wrap;html=1;fontSize=6;fillColor=#e51400;fontColor=#ffffff;strokeColor=none;container=0;" vertex="1" parent="WIyWlLk6GJQsqaUBKTNV-1">
          <mxGeometry x="520" y="200" width="40" height="20" as="geometry" />
        </mxCell>
        <mxCell id="VwgFeJyAuyQEly3SJzgB-54" value="E: 1401,100" style="rounded=0;whiteSpace=wrap;html=1;fontSize=6;fillColor=#e51400;fontColor=#ffffff;strokeColor=none;container=0;" vertex="1" parent="WIyWlLk6GJQsqaUBKTNV-1">
          <mxGeometry x="600" y="200" width="40" height="20" as="geometry" />
        </mxCell>
        <mxCell id="VwgFeJyAuyQEly3SJzgB-55" value="I: 1501,200" style="rounded=0;whiteSpace=wrap;html=1;fontSize=6;fillColor=#1ba1e2;fontColor=#ffffff;strokeColor=none;container=0;" vertex="1" parent="WIyWlLk6GJQsqaUBKTNV-1">
          <mxGeometry x="640" y="200" width="40" height="20" as="geometry" />
        </mxCell>
        <mxCell id="VwgFeJyAuyQEly3SJzgB-56" value="W: 1701,100" style="rounded=0;whiteSpace=wrap;html=1;fontSize=6;fillColor=#f0a30a;fontColor=#000000;strokeColor=none;container=0;" vertex="1" parent="WIyWlLk6GJQsqaUBKTNV-1">
          <mxGeometry x="680" y="200" width="40" height="20" as="geometry" />
        </mxCell>
        <mxCell id="VwgFeJyAuyQEly3SJzgB-57" value="E: 1801,100" style="rounded=0;whiteSpace=wrap;html=1;fontSize=6;fillColor=#e51400;fontColor=#ffffff;strokeColor=none;container=0;" vertex="1" parent="WIyWlLk6GJQsqaUBKTNV-1">
          <mxGeometry x="720" y="200" width="40" height="20" as="geometry" />
        </mxCell>
        <mxCell id="VwgFeJyAuyQEly3SJzgB-63" value="" style="group" vertex="1" connectable="0" parent="WIyWlLk6GJQsqaUBKTNV-1">
          <mxGeometry x="40" y="80" width="760" height="30" as="geometry" />
        </mxCell>
        <mxCell id="VwgFeJyAuyQEly3SJzgB-17" value="1" style="strokeWidth=1;shadow=0;dashed=0;align=left;html=1;shape=mxgraph.mockup.misc.ruler2;dx=40;rulerOrient=down;unitSize=10;spacingLeft=36;align=left;verticalAlign=middle;spacingBottom=10;spacingTop=0;spacingRight=0;spacing=0;strokeColor=#36393d;fontSize=10;fillColor=#eeeeee;" vertex="1" parent="VwgFeJyAuyQEly3SJzgB-63">
          <mxGeometry width="760" height="30" as="geometry" />
        </mxCell>
        <mxCell id="VwgFeJyAuyQEly3SJzgB-62" value="1:100" style="text;html=1;align=center;verticalAlign=middle;whiteSpace=wrap;rounded=0;fontSize=8;fontColor=#999999;" vertex="1" parent="VwgFeJyAuyQEly3SJzgB-63">
          <mxGeometry x="3" y="13" width="30" height="10" as="geometry" />
        </mxCell>
      </root>
    </mxGraphModel>
  </diagram>
</mxfile>
